<svg height="64" viewBox="0 0 64 64" width="64" xmlns="http://www.w3.org/2000/svg"><g fill="#000" fill-rule="evenodd"><path d="m7 58h36c1.654 0 3-1.346 3-3v-7c0-7.464-6.695-11.211-11.125-13.69-.617-.345-1.194-.668-1.704-.974l-1.714-1.028c-.898-.539-1.457-1.524-1.457-2.572v-16.736c0-2.757-2.243-5-5-5s-5 2.243-5 5v16.735c0 1.048-.558 2.033-1.457 2.572l-1.714 1.028c-.485.291-1.03.599-1.612.928-4.467 2.523-11.217 6.335-11.217 13.737v7c0 1.654 1.346 3 3 3zm-1-10c0-6.234 5.896-9.564 10.201-11.995.599-.338 1.159-.655 1.658-.954l1.714-1.028c1.497-.898 2.427-2.541 2.427-4.287v-16.736c0-1.654 1.346-3 3-3s3 1.346 3 3v16.735c0 1.746.93 3.389 2.427 4.287l1.714 1.028c.526.316 1.121.648 1.756 1.004 4.264 2.387 10.103 5.654 10.103 11.946v7c0 .551-.449 1-1 1h-36c-.551 0-1-.449-1-1z"/><path d="m11.806 44.592c.169-.229 4.235-5.592 13.194-5.592s13.025 5.363 13.192 5.589c.196.269.5.411.809.411.204 0 .411-.062.588-.192.446-.326.544-.951.219-1.397-.191-.262-4.79-6.411-14.808-6.411s-14.617 6.149-14.808 6.411c-.325.445-.227 1.068.217 1.394.444.327 1.07.231 1.397-.213z"/><path d="m43 34h9v23c0 .552.448 1 1 1h1c2.206 0 4-1.794 4-4v-44c0-2.206-1.794-4-4-4h-1c-.552 0-1 .448-1 1v1h-9c-.552 0-1 .448-1 1v24c0 .552.448 1 1 1zm9-14h-8v-2h8zm0 2v2h-8v-2zm0 4v2h-8v-2zm0-10h-8v-2h8zm-8 16v-2h8v2zm10-24c1.103 0 2 .897 2 2v44c0 1.103-.897 2-2 2zm-2 2v2h-8v-2z"/></g></svg>