<svg viewBox="0 0 128 128" xmlns="http://www.w3.org/2000/svg"><path d="m58 128h-48a2 2 0 0 1 -2-1.87l-4-64a2 2 0 0 1 2-2.13h56a2 2 0 0 1 2 2.13l-4 64a2 2 0 0 1 -2 1.87zm-46.12-4h44.24l3.75-60h-51.74z"/><path d="m66 64h-64a2 2 0 0 1 0-4h64a2 2 0 0 1 0 4z"/><path d="m60 83.59a20.35 20.35 0 0 1 -9.64-2.18 16.54 16.54 0 0 0 -8-1.82 16.48 16.48 0 0 0 -8 1.82 20.47 20.47 0 0 1 -9.64 2.18 20.47 20.47 0 0 1 -9.64-2.18 16.54 16.54 0 0 0 -8-1.82 2 2 0 1 1 0-4 20.47 20.47 0 0 1 9.64 2.18 16.36 16.36 0 0 0 8 1.82 16.42 16.42 0 0 0 8-1.82 20.47 20.47 0 0 1 9.64-2.18 20.47 20.47 0 0 1 9.64 2.18 16.42 16.42 0 0 0 8 1.82 2 2 0 0 1 0 4z"/><path d="m94 73h-12a2 2 0 0 1 -2-2v-63a8 8 0 0 1 16 0v63a2 2 0 0 1 -2 2zm-10-4h8v-61a4 4 0 0 0 -8 0z"/><path d="m79 93a2 2 0 0 1 -2-2v-20a2 2 0 0 1 2-2h18a2 2 0 0 1 2 2v11a2 2 0 0 1 -4 0v-9h-14v18a2 2 0 0 1 -2 2z"/><path d="m122.62 121.83h-.15c-.59 0-14.51-1.1-22.43-3.08-8.35-2.09-16.37-11-16.71-11.41a2 2 0 0 1 3-2.66c.08.09 7.54 8.4 14.69 10.19 7.59 1.89 21.62 3 21.76 3a2 2 0 0 1 -.15 4z"/><path d="m114.26 107a2 2 0 0 1 -1-.29c-14.63-9-35.19-10.49-35.4-10.5a2 2 0 0 1 -1.86-2.11 2 2 0 0 1 2.14-1.85c.88.06 21.76 1.61 37.21 11.08a2 2 0 0 1 -1 3.7z"/><path d="m120.47 114.94a2 2 0 0 1 -1.66-.88c-.11-.17-11.39-16.74-22.89-20.88a89.71 89.71 0 0 0 -13.81-3.3 2 2 0 1 1 .6-4 92.8 92.8 0 0 1 14.57 3.5c12.72 4.62 24.36 21.72 24.85 22.44a2 2 0 0 1 -1.66 3.12z"/><path d="m108.75 128c-10 0-21.44-1.94-28.77-9.27a22.13 22.13 0 0 1 0-31.28 22.15 22.15 0 0 1 31.28 0c6.32 6.32 8.53 14.9 10.49 22.47.17.65.33 1.31.5 1.95l5 4a2 2 0 0 1 .75 1.5 4.25 4.25 0 0 1 -2.61 3.84 19.43 19.43 0 0 0 1.22 2.18 2 2 0 0 1 -1.32 3 94.08 94.08 0 0 1 -16.54 1.61zm-25.94-37.74a18.12 18.12 0 0 0 0 25.62c9.87 9.87 28.89 8.61 39 7.07-.37-.74-.71-1.54-1-2.39a2 2 0 0 1 .17-1.8 2 2 0 0 1 1.55-.92 5 5 0 0 0 .72-.11l-4-3.17a2 2 0 0 1 -.68-1l-.69-2.62c-1.91-7.42-3.89-15.09-9.44-20.64a18.12 18.12 0 0 0 -25.62 0z"/><path d="m120.49 115h-.18a84.9 84.9 0 0 1 -13.18-2.25c-5.33-1.57-7.83-3.86-8.09-4.12a2 2 0 1 1 2.77-2.88 17.24 17.24 0 0 0 6.45 3.16 83.39 83.39 0 0 0 12.41 2.09 2 2 0 0 1 -.18 4z"/></svg>