<svg fill="none" height="32" viewBox="0 0 32 32" width="32" xmlns="http://www.w3.org/2000/svg"><path d="m3.01459 8.84392c-.12996-.96171.6171-1.84392 1.61099-1.84392h23.75002c.9939 0 1.7409.88221 1.611 1.84392l-.0012.00876-.3606 2.35382-.0004.0025c-.108.7233-.5775 1.32-1.2123 1.6069l-2.1243 16.1881-.0004.0035c-.1408 1.1128-1.073 1.9925-2.2219 1.9925h-15.13997c-1.14888 0-2.08105-.8797-2.22185-1.9925l-.00043-.0035-.29721-2.2648c-1.35153-.2702-2.33668-.9415-2.83332-2.0659-.56442-1.2779-.3463-2.8543.09111-4.3396.33916-1.1516.85315-2.3848 1.42766-3.6119l-.51281-3.9078c-.63497-.287-1.10444-.8812-1.21219-1.6067l-.35-2.34999zm2.04521.15608.28487 1.9127c.00762.0514.04836.0873.10091.0873h22.11002c.0369 0 .0823-.0295.0908-.0865l.0007-.0049.2924-1.9086zm.5624 11.766c-.01359.0445-.02687.0887-.03984.1328-.4126 1.401-.44073 2.3764-.18015 2.9664.11012.2493.31042.5085.71885.7023zm2.81881 6.1091.24681 1.8809c.02068.1655.14777.244.23771.244h15.13997c.09 0 .2171-.0785.2377-.244l.0008-.0061 2.0668-15.7499h-6.2422c.1121.0162.2233.0518.3289.1084.4869.2606.6704.8666.4097 1.3535-.2704.5052-.5344 1.0041-.7941 1.495-1.5248 2.8816-2.9007 5.4818-4.5382 7.3853-.9785 1.1374-2.0821 2.069-3.4128 2.6912-1.0963.5125-2.31057.798-3.68109.8417zm11.40309-13.8751h-13.22387l1.55902 11.8804c1.21521-.0136 2.22195-.2503 3.09575-.6588 1.0115-.4728 1.8985-1.2012 2.7438-2.1837 1.4781-1.7182 2.7307-4.0822 4.2681-6.9834.2632-.4966.5347-1.0089.8171-1.5364.1561-.2916.436-.4744.7401-.5181z" fill="#212121"/></svg>